<?xml version="1.0" encoding="UTF-8" standalone="no"?>
<!-- Created with Inkscape (http://www.inkscape.org/) -->

<svg
   xmlns:dc="http://purl.org/dc/elements/1.1/"
   xmlns:cc="http://creativecommons.org/ns#"
   xmlns:rdf="http://www.w3.org/1999/02/22-rdf-syntax-ns#"
   xmlns:svg="http://www.w3.org/2000/svg"
   xmlns="http://www.w3.org/2000/svg"
   xmlns:sodipodi="http://sodipodi.sourceforge.net/DTD/sodipodi-0.dtd"
   xmlns:inkscape="http://www.inkscape.org/namespaces/inkscape"
   width="28"
   height="28"
   viewBox="0 0 28.000003 28.000002"
   id="svg2"
   version="1.1"
   inkscape:version="0.91 r13725"
   inkscape:export-filename="C:\Users\Germán\Desktop\color-picker\ee.png"
   inkscape:export-xdpi="90"
   inkscape:export-ydpi="90"
   sodipodi:docname="ee.svg">
  <defs
     id="defs4" />
  <sodipodi:namedview
     id="base"
     pagecolor="#ffffff"
     bordercolor="#666666"
     borderopacity="1.0"
     inkscape:pageopacity="0.0"
     inkscape:pageshadow="2"
     inkscape:zoom="16"
     inkscape:cx="35.091528"
     inkscape:cy="12.776378"
     inkscape:document-units="px"
     inkscape:current-layer="layer1"
     showgrid="false"
     inkscape:snap-others="false"
     inkscape:snap-page="false"
     inkscape:window-width="1360"
     inkscape:window-height="705"
     inkscape:window-x="-8"
     inkscape:window-y="-8"
     inkscape:window-maximized="1"
     units="px"
     showguides="true"
     inkscape:guide-bbox="true"
     fit-margin-top="3"
     fit-margin-left="2.5"
     fit-margin-right="2.5"
     fit-margin-bottom="3">
    <sodipodi:guide
       position="319.19516,471.98568"
       orientation="1,0"
       id="guide3344" />
    <sodipodi:guide
       position="319.19516,299.23943"
       orientation="0,1"
       id="guide3346" />
    <sodipodi:guide
       position="390.67638,599.0634"
       orientation="0,1"
       id="guide3348" />
  </sodipodi:namedview>
  <metadata
     id="metadata7">
    <rdf:RDF>
      <cc:Work
         rdf:about="">
        <dc:format>image/svg+xml</dc:format>
        <dc:type
           rdf:resource="http://purl.org/dc/dcmitype/StillImage" />
        <dc:title></dc:title>
      </cc:Work>
    </rdf:RDF>
  </metadata>
  <g
     inkscape:label="Capa 1"
     inkscape:groupmode="layer"
     id="layer1"
     transform="translate(-6.4414652,-997.96522)">
    <path
       style="fill:#333333"
       d="m 24.079454,1020.9222 c -1.87569,-1.1462 -3.434811,-2.0847 -3.464719,-2.0855 -0.02991,-6e-4 -1.690786,0.9302 -3.690843,2.0687 -2.000059,1.1385 -3.641448,2.0635 -3.647532,2.0555 -0.0061,-0.011 0.406019,-1.7938 0.915786,-3.9685 0.724735,-3.0916 0.912607,-3.9652 0.861544,-4.0062 -0.222152,-0.178 -6.1264791,-5.6461 -6.1121986,-5.6604 0.00967,-0.01 1.7151486,-0.1599 3.7899496,-0.3337 2.0748,-0.1738 3.879589,-0.3295 4.010643,-0.346 l 0.238278,-0.031 1.739535,-3.8434 c 0.956743,-2.114 1.753367,-3.8267 1.770274,-3.8062 0.01691,0.021 0.716669,1.6871 1.55503,3.7032 0.838362,2.0162 1.554126,3.6898 1.590587,3.7192 0.03646,0.029 0.449935,0.096 0.918828,0.148 0.468889,0.053 2.176314,0.2468 3.794274,0.4328 1.617962,0.186 3.088184,0.3526 3.267161,0.3702 0.178979,0.018 0.325416,0.047 0.325416,0.066 0,0.019 -1.370545,1.2224 -3.045653,2.6753 -2.067023,1.7926 -3.038066,2.6669 -3.02204,2.7212 0.06572,0.222 1.646963,8.1283 1.632688,8.1634 -0.0092,0.023 -1.551319,-0.8968 -3.427008,-2.0429 z"
       id="path3448"
       inkscape:connector-curvature="0" />
  </g>
</svg>
