<?xml version="1.0" encoding="UTF-8" standalone="no"?>
<!-- Created with Inkscape (http://www.inkscape.org/) -->

<svg
   xmlns:dc="http://purl.org/dc/elements/1.1/"
   xmlns:cc="http://creativecommons.org/ns#"
   xmlns:rdf="http://www.w3.org/1999/02/22-rdf-syntax-ns#"
   xmlns:svg="http://www.w3.org/2000/svg"
   xmlns="http://www.w3.org/2000/svg"
   xmlns:sodipodi="http://sodipodi.sourceforge.net/DTD/sodipodi-0.dtd"
   xmlns:inkscape="http://www.inkscape.org/namespaces/inkscape"
   width="28"
   height="28"
   viewBox="0 0 28 28"
   id="svg3344"
   version="1.1"
   inkscape:version="0.91 r13725"
   sodipodi:docname="cc.svg">
  <defs
     id="defs3346" />
  <sodipodi:namedview
     id="base"
     pagecolor="#ffffff"
     bordercolor="#666666"
     borderopacity="1.0"
     inkscape:pageopacity="0.0"
     inkscape:pageshadow="2"
     inkscape:zoom="11.2"
     inkscape:cx="28.102046"
     inkscape:cy="12.6962"
     inkscape:document-units="px"
     inkscape:current-layer="layer1"
     showgrid="false"
     fit-margin-top="3"
     fit-margin-left="3.9"
     fit-margin-right="3.9"
     fit-margin-bottom="3"
     units="px"
     inkscape:window-width="1360"
     inkscape:window-height="705"
     inkscape:window-x="-8"
     inkscape:window-y="-8"
     inkscape:window-maximized="1" />
  <metadata
     id="metadata3349">
    <rdf:RDF>
      <cc:Work
         rdf:about="">
        <dc:format>image/svg+xml</dc:format>
        <dc:type
           rdf:resource="http://purl.org/dc/dcmitype/StillImage" />
        <dc:title></dc:title>
      </cc:Work>
    </rdf:RDF>
  </metadata>
  <g
     inkscape:label="Capa 1"
     inkscape:groupmode="layer"
     id="layer1"
     transform="translate(-303.16432,-541.21935)">
    <g
       transform="matrix(0.01439791,0,0,-0.01439791,307.00673,564.43401)"
       id="g3039">
      <path
         d="m 1404,1129 q 0,117 -79,196 -79,79 -196,79 -135,0 -235,-100 L 117,528 Q 4,413 4,257 4,98 114,-13 q 110,-111 269,-111 158,0 273,113 l 605,606 q 10,10 10,22 0,16 -30.5,46.5 -30.5,30.5 -46.5,30.5 -13,0 -23,-10 L 565,77 Q 486,0 384,0 278,0 205,75 q -73,75 -73,181 0,105 76,181 l 776,777 q 63,63 145,63 64,0 106,-42 42,-42 42,-106 0,-82 -63,-145 L 633,403 q -26,-24 -60,-24 -29,0 -48,19 -19,19 -19,48 0,32 25,59 l 410,410 q 10,10 10,22 0,16 -31,47 -31,31 -47,31 -12,0 -22,-10 L 441,595 q -63,-61 -63,-149 0,-82 57,-139 57,-57 139,-57 88,0 149,63 l 581,581 q 100,98 100,235 z"
         id="path3041"
         inkscape:connector-curvature="0"
         style="fill:#333333" />
    </g>
  </g>
</svg>
