<?xml version="1.0" encoding="UTF-8" standalone="no"?>
<!-- Generator: Adobe Illustrator 16.0.4, SVG Export Plug-In . SVG Version: 6.00 Build 0)  -->

<svg
   xmlns:dc="http://purl.org/dc/elements/1.1/"
   xmlns:cc="http://creativecommons.org/ns#"
   xmlns:rdf="http://www.w3.org/1999/02/22-rdf-syntax-ns#"
   xmlns:svg="http://www.w3.org/2000/svg"
   xmlns="http://www.w3.org/2000/svg"
   xmlns:sodipodi="http://sodipodi.sourceforge.net/DTD/sodipodi-0.dtd"
   xmlns:inkscape="http://www.inkscape.org/namespaces/inkscape"
   version="1.1"
   id="Layer_1"
   x="0px"
   y="0px"
   width="27.999998"
   height="27.999998"
   viewBox="0 0 27.999999 27.999998"
   enable-background="new 0 0 100.393 112"
   xml:space="preserve"
   inkscape:version="0.91 r13725"
   sodipodi:docname="rr.svg"><metadata
   id="metadata9"><rdf:RDF><cc:Work
       rdf:about=""><dc:format>image/svg+xml</dc:format><dc:type
         rdf:resource="http://purl.org/dc/dcmitype/StillImage" /><dc:title></dc:title></cc:Work></rdf:RDF></metadata><defs
   id="defs7" /><sodipodi:namedview
   pagecolor="#ffffff"
   bordercolor="#666666"
   borderopacity="1"
   objecttolerance="10"
   gridtolerance="10"
   guidetolerance="10"
   inkscape:pageopacity="0"
   inkscape:pageshadow="2"
   inkscape:window-width="1360"
   inkscape:window-height="705"
   id="namedview5"
   showgrid="false"
   showguides="true"
   inkscape:guide-bbox="true"
   fit-margin-top="4"
   fit-margin-left="1.5"
   fit-margin-right="1.5"
   fit-margin-bottom="4"
   inkscape:zoom="11.9198"
   inkscape:cx="18.604111"
   inkscape:cy="13.277833"
   inkscape:window-x="-8"
   inkscape:window-y="-8"
   inkscape:window-maximized="1"
   inkscape:current-layer="Layer_1"><sodipodi:guide
     position="102.98181,51.177065"
     orientation="0,1"
     id="guide3337" /></sodipodi:namedview>
<path
   d="m 8.4194011,19.259229 -1.683532,1.583273 c 2.995716,3.364873 7.8604819,4.128699 11.8333869,1.864345 2.327392,-1.328535 4.039329,-3.560036 4.769741,-6.168033 l 3.161003,-0.0011 -4.163911,-4.922676 -4.918482,4.926306 3.569857,-8.99e-4 c -0.639654,1.749145 -1.867692,3.230253 -3.4781,4.145871 -3.054093,1.744736 -6.788439,1.155936 -9.0899629,-1.427055 z M 21.260719,7.1568153 19.576781,8.7407966 C 17.282419,6.1606633 13.543401,5.5711823 10.487917,7.3137083 8.8795821,8.2310856 7.6505791,9.7118056 7.0113041,11.456854 l 3.5704299,0.0019 -4.9172799,4.922182 -4.164454,-4.92153 3.166762,-0.0019 c 0.45536,-1.6131844 1.273197,-3.0916674 2.393781,-4.2895307 0.687288,-0.734684 1.487942,-1.369358 2.366534,-1.873246 3.9793359,-2.266967 8.8458959,-1.501655 11.8336419,1.862086 z"
   id="path3"
   inkscape:connector-curvature="0"
   style="fill:#333333" />
</svg>