<?xml version="1.0" encoding="UTF-8" standalone="no"?>
<svg id="Layer_1" xmlns:rdf="http://www.w3.org/1999/02/22-rdf-syntax-ns#" xmlns="http://www.w3.org/2000/svg" xml:space="preserve" height="32" viewBox="0 0 32 32" width="32" version="1.1" y="0px" x="0px" xmlns:cc="http://creativecommons.org/ns#" enable-background="new 0 0 100.393 112" xmlns:dc="http://purl.org/dc/elements/1.1/"><metadata id="metadata57"><rdf:RDF><cc:Work rdf:about=""><dc:format>image/svg+xml</dc:format><dc:type rdf:resource="http://purl.org/dc/dcmitype/StillImage"/><dc:title/></cc:Work></rdf:RDF></metadata><path id="path3" d="m24.610169,15.989803 2.59537,-0.0058 c-0.01062,5.08014-3.531213,9.475096-8.558814,10.695624-2.946732,0.713511-6.04906,0.20973-8.606913,-1.36316l-2.6583113,2.44779-0.1683181,-7.262483 7.8065054,0.22964-3.001853,2.764741 c1.841398,0.938844 3.977699,1.202205 6.014004,0.705424 3.86791,-0.935187 6.568453,-4.310936 6.578273,-8.212091zm-19.8160078,0.02402 2.5963241,-0.0056 c0.00646,-3.893671 2.7105037,-7.2735793 6.5775047,-8.2113292 2.035886,-0.4937135 4.17268,-0.2314776 6.01085,0.704411l-3.000216,2.7673752 7.802456,0.227172-0.166908,-7.2620454-2.66376,2.4517087 C20.365706,5.7155226 18.576274,5.1365974 16.741229,5.0224755 15.615847,4.9524289 14.469667,5.0521328 13.355297,5.3196514 8.3205442,6.5432086 4.799418,10.940817 4.7941554,16.013795Z" fill="#333"/></svg>
