<?xml version="1.0" encoding="UTF-8" standalone="no"?>

<svg id="Layer_1" xmlns:rdf="http://www.w3.org/1999/02/22-rdf-syntax-ns#" xmlns="http://www.w3.org/2000/svg" enable-background="new 0 0 100.393 112" xml:space="preserve" height="28" viewBox="0 0 27.999999 27.999998" width="28" version="1.1" y="0px" x="0px" xmlns:cc="http://creativecommons.org/ns#" xmlns:dc="http://purl.org/dc/elements/1.1/">
<path id="path3" fill="#333" d="m8.4194 19.259-1.6835 1.5833c2.9957 3.3649 7.8605 4.1287 11.833 1.8643 2.3274-1.3285 4.0393-3.56 4.7697-6.168l3.161-0.0011-4.1639-4.9227-4.9185 4.9263 3.5699-0.000899c-0.63965 1.7491-1.8677 3.2303-3.4781 4.1459-3.0541 1.7447-6.7884 1.1559-9.09-1.4271zm12.842-12.102-1.684 1.584c-2.295-2.5801-6.034-3.1696-9.089-1.4271-1.6084 0.9174-2.8374 2.3981-3.4767 4.1433l3.5704 0.0019-4.9173 4.9222-4.1645-4.9215 3.1668-0.0019c0.45536-1.6132 1.2732-3.0917 2.3938-4.2895 0.68729-0.73468 1.4879-1.3694 2.3665-1.8732 3.9793-2.267 8.8459-1.5017 11.834 1.8621z"/>
</svg>
