<?xml version="1.0" encoding="UTF-8" standalone="no"?>
<!-- Created with Inkscape (http://www.inkscape.org/) -->
<svg id="svg2" xmlns:rdf="http://www.w3.org/1999/02/22-rdf-syntax-ns#" xmlns="http://www.w3.org/2000/svg" height="6" viewBox="0 0 20 6" width="20" version="1.1" xmlns:cc="http://creativecommons.org/ns#" xmlns:dc="http://purl.org/dc/elements/1.1/">
 <metadata id="metadata8">
  <rdf:RDF>
   <cc:Work rdf:about="">
    <dc:format>image/svg+xml</dc:format>
    <dc:type rdf:resource="http://purl.org/dc/dcmitype/StillImage"/>
    <dc:title/>
   </cc:Work>
  </rdf:RDF>
 </metadata>
 <ellipse id="path3350" opacity="0" rx="3.6775" ry="1.3406" cy="3.9348" cx="6.4312"/>
 <path id="path4158" d="m3 0a3 3 0 0 0 -3 3 3 3 0 0 0 3 3h14a3 3 0 0 0 3 -3 3 3 0 0 0 -3 -3h-14zm0 1h14.008c1.104 0 2 0.8954 2 2s-0.896 2-2 2h-14.008c-1.1046 0-2-0.8954-2-2s0.8954-2 2-2z"/>
 <path id="path4158-5" d="m3 1c-1.1046 0-2 0.8954-2 2s0.8954 2 2 2h14.008c1.104 0 2-0.8954 2-2s-0.896-2-2-2h-14.008zm0 1h13.998c0.552 0 1 0.4477 1 1s-0.448 1-1 1h-13.998c-0.5523 0-1-0.4477-1-1s0.4477-1 1-1z" fill="#fff"/>
</svg>
