<?xml version="1.0" encoding="UTF-8" standalone="no"?>
<!-- Generator: Adobe Illustrator 18.1.1, SVG Export Plug-In . SVG Version: 6.00 Build 0)  -->
<svg id="Capa_1" xmlns:rdf="http://www.w3.org/1999/02/22-rdf-syntax-ns#" xmlns="http://www.w3.org/2000/svg" xml:space="preserve" viewBox="0 0 31.999999 32" height="32" width="32" version="1.1" y="0px" x="0px" xmlns:cc="http://creativecommons.org/ns#" xmlns:dc="http://purl.org/dc/elements/1.1/"><metadata id="metadata41"><rdf:RDF><cc:Work rdf:about=""><dc:format>image/svg+xml</dc:format><dc:type rdf:resource="http://purl.org/dc/dcmitype/StillImage"/><dc:title/></cc:Work></rdf:RDF></metadata><g id="g3" transform="matrix(.90479 0 0 .91666 -33.668 -534)"><path id="path5" fill="#333" d="m65.383 592.19c-6.036-3.45-10.477-4.19-10.477-4.19s-0.0047 0.0007-0.01135 0.003c-0.0067-0.002-0.01136-0.003-0.01136-0.003s-4.4413 0.73698-10.476 4.1942c0 0-0.80025 17.453 10.476 19.806 0.0038-0.0007 0.0075-0.003 0.01136-0.003 0.0038 0.0007 0.0075 0.003 0.01135 0.003 11.276-2.3524 10.476-19.806 10.476-19.806zm-10.476-1.7588c0.98797 0.20874 3.7263 0.9176 8.3143 3.2703-0.27399 3.1597-0.77479 12.909-8.3143 15.849v-19.532z"/></g></svg>
