<?xml version="1.0" encoding="UTF-8" standalone="no"?>
<svg
   xmlns:dc="http://purl.org/dc/elements/1.1/"
   xmlns:cc="http://creativecommons.org/ns#"
   xmlns:rdf="http://www.w3.org/1999/02/22-rdf-syntax-ns#"
   xmlns:svg="http://www.w3.org/2000/svg"
   xmlns="http://www.w3.org/2000/svg"
   xmlns:sodipodi="http://sodipodi.sourceforge.net/DTD/sodipodi-0.dtd"
   xmlns:inkscape="http://www.inkscape.org/namespaces/inkscape"
   height="18"
   viewBox="0 0 18 18"
   width="18"
   id="svg4140"
   version="1.1"
   inkscape:version="0.91 r"
   sodipodi:docname="action_info.svg"
   style="fill:#000000">
  <metadata
     id="metadata4150">
    <rdf:RDF>
      <cc:Work
         rdf:about="">
        <dc:format>image/svg+xml</dc:format>
        <dc:type
           rdf:resource="http://purl.org/dc/dcmitype/StillImage" />
        <dc:title />
      </cc:Work>
    </rdf:RDF>
  </metadata>
  <defs
     id="defs4148" />
  <sodipodi:namedview
     pagecolor="#ffffff"
     bordercolor="#666666"
     borderopacity="1"
     objecttolerance="10"
     gridtolerance="10"
     guidetolerance="10"
     inkscape:pageopacity="0"
     inkscape:pageshadow="2"
     inkscape:window-width="640"
     inkscape:window-height="480"
     id="namedview4146"
     showgrid="false"
     inkscape:zoom="9.8333333"
     inkscape:cx="13.830508"
     inkscape:cy="12"
     inkscape:current-layer="svg4140" />
  <path
     d="m 0,-6 24,0 0,24 -24,0 z"
     id="path4142"
     inkscape:connector-curvature="0"
     style="fill:none" />
  <path
     d="m 8.45,11.75 1.1,0 0,-3.3 -1.1,0 0,3.3 z M 9,3.5 C 5.964,3.5 3.5,5.964 3.5,9 c 0,3.036 2.464,5.5 5.5,5.5 3.036,0 5.5,-2.464 5.5,-5.5 C 14.5,5.964 12.036,3.5 9,3.5 Z m 0,9.9 C 6.5745,13.4 4.6,11.4255 4.6,9 4.6,6.5745 6.5745,4.6 9,4.6 c 2.4255,0 4.4,1.9745 4.4,4.4 0,2.4255 -1.9745,4.4 -4.4,4.4 z m -0.55,-6.05 1.1,0 0,-1.1 -1.1,0 0,1.1 z"
     id="path4144"
     inkscape:connector-curvature="0"
     style="fill:#424242;fill-opacity:1" />
</svg>
