<?xml version="1.0" encoding="UTF-8" standalone="no"?>
<!-- Generator: Adobe Illustrator 16.0.0, SVG Export Plug-In . SVG Version: 6.00 Build 0)  -->
<svg id="Capa_1" xmlns:rdf="http://www.w3.org/1999/02/22-rdf-syntax-ns#" xmlns="http://www.w3.org/2000/svg" xml:space="preserve" height="32" viewBox="0 0 31.999999 31.999999" width="32" version="1.1" y="0px" x="0px" xmlns:cc="http://creativecommons.org/ns#" xmlns:dc="http://purl.org/dc/elements/1.1/"><metadata id="metadata47"><rdf:RDF><cc:Work rdf:about=""><dc:format>image/svg+xml</dc:format><dc:type rdf:resource="http://purl.org/dc/dcmitype/StillImage"/><dc:title/></cc:Work></rdf:RDF></metadata><g id="g3" transform="matrix(.95653 0 0 .97826 3.6602 -63.219)"><g id="g5" fill="#333"><path id="path7" d="m24.258 80.569-5.87-6.2842c-0.5654-0.6053-2.6129 1.401-1.9606 2.0992l4.2535 4.5531-4.2532 4.5539c-0.6892 0.73784 1.2787 2.8295 1.9609 2.0992l5.8695-6.2839c0.19008-0.20375 0.19008-0.53386 0-0.73735z"/><path id="path9" d="m9.3737 85.491-4.2527-4.553 4.2534-4.553c0.5031-0.539-1.4813-2.613-1.9609-2.099l-5.8702 6.2836c-0.19008 0.20349-0.19008 0.53334 0 0.73709l5.87 6.2839c0.48241 0.51645 2.4414-1.584 1.9604-2.099z"/><path id="path11" d="m14.313 71.947-4.7894 17.363c-0.15973 0.6382 1.8162 1.2152 1.965 0.62089l4.7894-17.364c0.10307-0.48091-1.8487-1.0853-1.965-0.62063z"/></g></g></svg>
