<?xml version="1.0" encoding="UTF-8" standalone="no"?>
<!-- Created with Inkscape (http://www.inkscape.org/) -->
<svg id="svg2" xmlns:rdf="http://www.w3.org/1999/02/22-rdf-syntax-ns#" xmlns="http://www.w3.org/2000/svg" height="32" viewBox="0 0 32.000004 31.999999" width="32" version="1.1" xmlns:cc="http://creativecommons.org/ns#" xmlns:dc="http://purl.org/dc/elements/1.1/">
 <metadata id="metadata7">
  <rdf:RDF>
   <cc:Work rdf:about="">
    <dc:format>image/svg+xml</dc:format>
    <dc:type rdf:resource="http://purl.org/dc/dcmitype/StillImage"/>
    <dc:title/>
   </cc:Work>
  </rdf:RDF>
 </metadata>
 <g id="layer1" transform="matrix(.95652 0 0 .95455 -3.5524 -949.95)">
  <path id="path3448" fill="#333" d="m24.079 1020.9c-1.8757-1.1462-3.4348-2.0847-3.4647-2.0855-0.02991-0.0006-1.6908 0.9302-3.6908 2.0687-2.0001 1.1385-3.6414 2.0635-3.6475 2.0555-0.0061-0.011 0.40602-1.7938 0.91579-3.9685 0.72474-3.0916 0.91261-3.9652 0.86154-4.0062-0.22215-0.178-6.1265-5.6461-6.1122-5.6604 0.00967-0.01 1.7151-0.1599 3.7899-0.3337s3.8796-0.3295 4.0106-0.346l0.23828-0.031 1.7395-3.8434c0.95674-2.114 1.7534-3.8267 1.7703-3.8062 0.01691 0.021 0.71667 1.6871 1.555 3.7032 0.83836 2.0162 1.5541 3.6898 1.5906 3.7192 0.03646 0.029 0.44994 0.096 0.91883 0.148 0.46889 0.053 2.1763 0.2468 3.7943 0.4328s3.0882 0.3526 3.2672 0.3702c0.17898 0.018 0.32542 0.047 0.32542 0.066s-1.3705 1.2224-3.0457 2.6753c-2.067 1.7926-3.0381 2.6669-3.022 2.7212 0.06572 0.222 1.647 8.1283 1.6327 8.1634-0.0092 0.023-1.5513-0.8968-3.427-2.0429z"/>
 </g>
</svg>
