<?xml version="1.0" encoding="UTF-8" standalone="no"?>
<svg
   xmlns:dc="http://purl.org/dc/elements/1.1/"
   xmlns:cc="http://creativecommons.org/ns#"
   xmlns:rdf="http://www.w3.org/1999/02/22-rdf-syntax-ns#"
   xmlns:svg="http://www.w3.org/2000/svg"
   xmlns="http://www.w3.org/2000/svg"
   xmlns:sodipodi="http://sodipodi.sourceforge.net/DTD/sodipodi-0.dtd"
   xmlns:inkscape="http://www.inkscape.org/namespaces/inkscape"
   fill="#000000"
   height="18"
   viewBox="0 0 24 24"
   width="18"
   id="svg5244"
   version="1.1"
   inkscape:version="0.91 r"
   sodipodi:docname="action_random.svg">
  <metadata
     id="metadata5254">
    <rdf:RDF>
      <cc:Work
         rdf:about="">
        <dc:format>image/svg+xml</dc:format>
        <dc:type
           rdf:resource="http://purl.org/dc/dcmitype/StillImage" />
      </cc:Work>
    </rdf:RDF>
  </metadata>
  <defs
     id="defs5252" />
  <sodipodi:namedview
     pagecolor="#ffffff"
     bordercolor="#666666"
     borderopacity="1"
     objecttolerance="10"
     gridtolerance="10"
     guidetolerance="10"
     inkscape:pageopacity="0"
     inkscape:pageshadow="2"
     inkscape:window-width="640"
     inkscape:window-height="480"
     id="namedview5250"
     showgrid="false"
     inkscape:zoom="13.111111"
     inkscape:cx="10.372881"
     inkscape:cy="8.9999998"
     inkscape:current-layer="svg5244" />
  <path
     d="M 5.5418502,7.5066079 C 6.1585903,6.8810572 6.7753304,6.3171806 7.0484581,6.431718 c 0.4405287,0.1762115 0,0.907489 -0.2643171,1.3392071 -0.2202643,0.370044 -2.5198238,3.4273129 -2.5198238,5.5594719 0,1.127753 0.4229075,2.061674 1.1806167,2.62555 0.660793,0.493392 1.5330397,0.643172 2.3259912,0.405287 0.9427313,-0.273128 1.7180617,-1.233481 2.6960349,-2.440529 1.06608,-1.312775 2.493392,-3.030837 3.594714,-3.030837 1.436123,0 1.453745,0.889868 1.550661,1.577093 -3.330397,0.563876 -4.740088,3.23348 -4.740088,4.731277 0,1.497797 1.268722,2.722467 2.828194,2.722467 1.436123,0 3.779735,-1.171806 4.132158,-5.374449 l 2.167401,0 0,-2.202644 -2.176211,0 C 17.69163,10.889868 16.863436,8.6431719 14.273128,8.6431719 c -1.982379,0 -3.68282,1.6828191 -4.3524232,2.5022031 -0.5110132,0.643171 -1.8149779,2.185022 -2.0176211,2.396475 -0.2202643,0.264318 -0.5991189,0.740088 -0.9779736,0.740088 -0.3964757,0 -0.6343612,-0.731277 -0.3171806,-1.691629 0.3083701,-0.960353 1.2334802,-2.519824 1.629956,-3.1013221 0.6872246,-1.0044053 1.1453744,-1.6916301 1.1453744,-2.889868 0,-1.9118943 -1.4449339,-2.5198238 -2.2114537,-2.5198238 -1.1629956,0 -2.1762115,0.8810573 -2.3964758,1.1013216 C 4.4581498,5.4977973 4.1938326,5.7621145 4,6 L 5.5418502,7.5066079 Z M 13.726872,17.779736 c -0.273128,0 -0.651982,-0.229075 -0.651982,-0.634361 0,-0.528635 0.643172,-1.938326 2.528634,-2.431718 -0.264317,2.370044 -1.259912,3.066079 -1.876652,3.066079 z"
     id="path5246"
     inkscape:connector-curvature="0"
     style="fill:#424242;fill-opacity:1" />
  <path
     d="M0 0h24v24H0z"
     fill="none"
     id="path5248" />
</svg>
