<?xml version="1.0" encoding="UTF-8" standalone="no"?>
<svg
   xmlns:dc="http://purl.org/dc/elements/1.1/"
   xmlns:cc="http://creativecommons.org/ns#"
   xmlns:rdf="http://www.w3.org/1999/02/22-rdf-syntax-ns#"
   xmlns:svg="http://www.w3.org/2000/svg"
   xmlns="http://www.w3.org/2000/svg"
   xmlns:sodipodi="http://sodipodi.sourceforge.net/DTD/sodipodi-0.dtd"
   xmlns:inkscape="http://www.inkscape.org/namespaces/inkscape"
   fill="#000000"
   height="18"
   viewBox="0 0 24 24"
   width="18"
   id="svg4692"
   version="1.1"
   inkscape:version="0.91 r"
   sodipodi:docname="action_invert.svg">
  <metadata
     id="metadata4702">
    <rdf:RDF>
      <cc:Work
         rdf:about="">
        <dc:format>image/svg+xml</dc:format>
        <dc:type
           rdf:resource="http://purl.org/dc/dcmitype/StillImage" />
        <dc:title />
      </cc:Work>
    </rdf:RDF>
  </metadata>
  <defs
     id="defs4700" />
  <sodipodi:namedview
     pagecolor="#ffffff"
     bordercolor="#666666"
     borderopacity="1"
     objecttolerance="10"
     gridtolerance="10"
     guidetolerance="10"
     inkscape:pageopacity="0"
     inkscape:pageshadow="2"
     inkscape:window-width="640"
     inkscape:window-height="480"
     id="namedview4698"
     showgrid="false"
     inkscape:zoom="13.111111"
     inkscape:cx="10.372881"
     inkscape:cy="8.9999998"
     inkscape:current-layer="svg4692" />
  <path
     d="M24 0H0v24h24z"
     fill="none"
     id="path4694" />
  <path
     d="M 16.689798,8.689798 12,4 7.3102019,8.689798 c -2.5851891,2.585189 -2.5851891,6.786121 0,9.37131 C 8.6027964,19.353703 10.301398,20 12,20 c 1.698602,0 3.397203,-0.646297 4.689798,-1.938892 2.585189,-2.585189 2.585189,-6.786121 0,-9.37131 z M 12,18.351113 c -1.325738,0 -2.5769033,-0.513723 -3.5132057,-1.458311 -0.9445883,-0.944589 -1.4583118,-2.187468 -1.4583118,-3.513206 0,-1.325738 0.5137235,-2.576903 1.4583118,-3.513206 L 12,6.344899 12,18.351113 Z"
     id="path4696"
     inkscape:connector-curvature="0"
     style="fill:#424242;fill-opacity:1" />
</svg>
