<?xml version="1.0" encoding="UTF-8" standalone="no"?>
<!-- Created with Inkscape (http://www.inkscape.org/) -->
<svg xmlns="http://www.w3.org/2000/svg" xmlns:xlink="http://www.w3.org/1999/xlink" width="32" height="16" viewBox="0 0 32 16" version="1.1">
  <defs>
  	<path id="close" d="M 8 0 A 8 8 0 0 0 0 8 A 8 8 0 0 0 8 16 A 8 8 0 0 0 16 8 A 8 8 0 0 0 8 0 z M 4.640625 3.890625 C 4.8323393 3.890625 5.0249736 3.9644267 5.171875 4.1113281 L 8 6.9394531 L 10.828125 4.1113281 C 11.121928 3.8175253 11.594869 3.8175253 11.888672 4.1113281 C 12.182475 4.405131 12.182475 4.8780721 11.888672 5.171875 L 9.0605469 8 L 11.888672 10.828125 C 12.182475 11.121928 12.182475 11.594869 11.888672 11.888672 C 11.594869 12.182475 11.121928 12.182475 10.828125 11.888672 L 8 9.0605469 L 5.171875 11.888672 C 4.8780721 12.182475 4.405131 12.182475 4.1113281 11.888672 C 3.8175253 11.594869 3.8175253 11.121928 4.1113281 10.828125 L 6.9394531 8 L 4.1113281 5.171875 C 3.8175253 4.8780721 3.8175253 4.405131 4.1113281 4.1113281 C 4.2582296 3.964427 4.4489107 3.890625 4.640625 3.890625 z "/>
  </defs>
  <use href="#close" xlink:href="#close" fill="#BBBBBB"/>
  <use href="#close" xlink:href="#close" transform="translate(16 0)" fill="#FF3333"/>
</svg>
